# xmcd CD database file
#
# Track frame offsets:
#	150
#	15577
#	39417
#	61935
#	82180
#	103557
#	126122
#	146665
#
# Disc length: 2214 seconds
#
# Revision: 0
# Processed by: cddbd v1.5PL3 Copyright (c) Steve Scherf et al.
# Submitted via: CDex 1.51
#
DISCID=6508a408
DTITLE=UFO - The Wild, The Willing And The Innocent
DYEAR=1981
DGENRE=Hard Rock
TTITLE0=Chains Chains
TTITLE1=Long Gone
TTITLE2=The Wild The WIlling And The Innocent
TTITLE3=It's Killing Me
TTITLE4=Makin' Moves
TTITLE5=Lonely Heart
TTITLE6=Couldn't Get It Right
TTITLE7=Profession Of Violence
EXTD=YEAR: 1981
EXTT0=
EXTT1=
EXTT2=
EXTT3=
EXTT4=
EXTT5=
EXTT6=
EXTT7=
PLAYORDER=
